<svg width="44.000000" height="44.000000" viewBox="0 0 44 44" fill="none" xmlns="http://www.w3.org/2000/svg" xmlns:xlink="http://www.w3.org/1999/xlink">
	<desc>
			Created with Pixso.
	</desc>
	<defs>
		<clipPath id="clip5_253">
			<rect id="pawprint 1" width="44.000000" height="44.000000" fill="white" fill-opacity="0"/>
		</clipPath>
	</defs>
	<rect id="pawprint 1" width="44.000000" height="44.000000" fill="#FFFFFF" fill-opacity="0"/>
	<g clip-path="url(#clip5_253)">
		<path id="Vector" d="M21.2415 10.0124C21.2415 14.2021 18.8639 17.5986 15.931 17.5986C12.9983 17.5986 10.6207 14.2021 10.6207 10.0124C10.6207 5.8226 12.9983 2.42615 15.931 2.42615C18.8639 2.42615 21.2415 5.8226 21.2415 10.0124Z" fill="#FFB334" fill-opacity="1.000000" fill-rule="evenodd"/>
		<path id="Vector" d="M33.3794 10.0124C33.3794 14.2021 31.0018 17.5986 28.069 17.5986C25.1362 17.5986 22.7587 14.2021 22.7587 10.0124C22.7587 5.8226 25.1362 2.42615 28.069 2.42615C31.0018 2.42615 33.3794 5.8226 33.3794 10.0124Z" fill="#FFB334" fill-opacity="1.000000" fill-rule="evenodd"/>
		<path id="Vector" d="M9.10339 19.1158C9.10339 23.3057 8.58301 26.702 6.06897 26.702C3.55493 26.702 0 23.3057 0 19.1158C0 14.9259 2.0376 11.5296 4.55176 11.5296C7.0658 11.5296 9.10339 14.9259 9.10339 19.1158Z" fill="#FFB334" fill-opacity="1.000000" fill-rule="nonzero"/>
		<path id="Vector" d="M43.9999 19.1158C43.9999 23.3057 40.4451 26.702 37.9309 26.702C35.4169 26.702 34.8965 23.3057 34.8965 19.1158C34.8965 14.9259 36.9341 11.5296 39.4482 11.5296C41.9623 11.5296 43.9999 14.9259 43.9999 19.1158Z" fill="#FFB334" fill-opacity="1.000000" fill-rule="nonzero"/>
		<path id="Vector" d="M34.1379 32.1208C34.1379 36.6657 31.7863 40.4846 26.5518 41.5672C25.5822 41.7675 23.0476 37.3227 22 37.3227C20.9524 37.3227 18.4177 41.7675 17.4482 41.5672C12.2137 40.4846 9.86206 36.6657 9.86206 32.1208C9.86206 26.7339 15.296 19.1158 22 19.1158C28.704 19.1158 34.1379 26.7339 34.1379 32.1208Z" fill="#FFB334" fill-opacity="1.000000" fill-rule="nonzero"/>
		<path id="Vector" d="M12.8966 32.771L12.8815 32.771C12.4625 32.7627 12.1296 32.4164 12.1379 31.9975C12.1379 31.9974 12.1379 31.9973 12.1379 31.9972C12.2222 27.8088 16.6738 21.3917 22 21.3917C22.4189 21.3917 22.7587 21.7313 22.7587 22.1503C22.7587 22.5692 22.4189 22.9089 22 22.9089C17.5735 22.9089 13.7266 28.5098 13.6553 32.0275C13.647 32.4406 13.3098 32.7711 12.8966 32.771Z" fill="#FFEEAD" fill-opacity="1.000000" fill-rule="nonzero"/>
	</g>
</svg>
