<svg width="24.000000" height="24.000000" viewBox="0 0 24 24" fill="none" xmlns="http://www.w3.org/2000/svg" xmlns:xlink="http://www.w3.org/1999/xlink">
	<desc>
			Created with Pixso.
	</desc>
	<defs>
		<clipPath id="clip12_608">
			<rect id="right-arrow 1" width="24.000000" height="24.000000" fill="white" fill-opacity="0"/>
		</clipPath>
	</defs>
	<rect id="right-arrow 1" width="24.000000" height="24.000000" fill="#FFFFFF" fill-opacity="0"/>
	<g clip-path="url(#clip12_608)">
		<path id="Vector" d="M18.667 11.0635L7.98682 0.383423C7.73975 0.136169 7.41016 0 7.05859 0C6.70703 0 6.37695 0.136169 6.12988 0.383423L5.34375 1.16974C4.83154 1.68213 4.83154 2.51489 5.34375 3.02649L14.312 11.995L5.3335 20.9735C5.08643 21.2207 4.9502 21.5503 4.9502 21.9017C4.9502 22.2535 5.08643 22.583 5.3335 22.8304L6.12012 23.6166C6.36719 23.8638 6.69678 24 7.04834 24C7.3999 24 7.72998 23.8638 7.97705 23.6166L18.667 12.9267C18.9146 12.6787 19.0508 12.3476 19.0498 11.9956C19.0508 11.6423 18.9146 11.3113 18.667 11.0635Z" fill="#FFFFFF" fill-opacity="1.000000" fill-rule="nonzero"/>
	</g>
</svg>
